<svg width="32" height="36" viewBox="0 0 32 36" fill="none" xmlns="http://www.w3.org/2000/svg">
<path d="M24.72 19.52C28.62 20.84 32 23 32 26V36H0V26C0 23 3.38 20.84 7.3 19.52L8.54 22L9 23C6 23.92 3.8 25.24 3.8 26V32.2H12.24L14 22.06L12.12 18.3C13.36 18.16 14.66 18.06 16 18.06C17.34 18.06 18.64 18.16 19.88 18.3L18 22.06L19.76 32.2H28.2V26C28.2 25.24 26 23.92 23 23L23.46 22L24.72 19.52ZM16 4C13.8 4 12 5.8 12 8C12 10.2 13.8 12 16 12C18.2 12 20 10.2 20 8C20 5.8 18.2 4 16 4ZM16 16C11.58 16 8 12.42 8 8C8 3.58 11.58 0 16 0C20.42 0 24 3.58 24 8C24 12.42 20.42 16 16 16Z" fill="#9DDB87"/>
</svg>
