<svg width="100" height="100" viewBox="0 0 100 100" fill="none" xmlns="http://www.w3.org/2000/svg">
<path d="M59.4745 72.7998C60.619 69.2773 63.9015 66.8924 67.6052 66.8924C77.8244 66.8924 82.0734 53.8155 73.8058 47.8088C70.8095 45.6319 69.5557 41.7731 70.7002 38.2506C73.8581 28.5316 62.7342 20.4496 54.4667 26.4563C51.4703 28.6333 47.413 28.6333 44.4166 26.4563C36.1491 20.4496 25.0252 28.5316 28.1831 38.2506C29.3276 41.7731 28.0738 45.6319 25.0774 47.8088C16.8099 53.8155 21.0589 66.8924 31.2781 66.8924C34.9818 66.8924 38.2643 69.2773 39.4088 72.7998C42.5667 82.5188 56.3166 82.5188 59.4745 72.7998Z" fill="white" stroke="#1A91D6" stroke-width="2"/>
<path d="M39.9672 27.6418C38.8227 31.1643 35.5402 33.5491 31.8364 33.5491C21.6172 33.5491 17.3683 46.626 25.6358 52.6327C28.6322 54.8097 29.886 58.6685 28.7415 62.191C25.5836 71.91 36.7074 79.992 44.9749 73.9853C47.9713 71.8083 52.0287 71.8083 55.0251 73.9853C63.2926 79.992 74.4165 71.91 71.2585 62.191C70.114 58.6685 71.3678 54.8097 74.3642 52.6327C82.6317 46.626 78.3828 33.5491 68.1636 33.5491C64.4598 33.5491 61.1773 31.1643 60.0328 27.6418C56.8749 17.9228 43.1251 17.9228 39.9672 27.6418Z" fill="white" stroke="#1A91D6" stroke-width="2"/>
<path d="M55.136 28.24C55.136 28.432 55.072 28.58 54.944 28.684C54.824 28.78 54.672 28.828 54.488 28.828H50.3L51.044 29.248C50.724 29.736 50.38 30.2 50.012 30.64H50.432V37.72H49.388V31.336C48.86 31.928 48.284 32.488 47.66 33.016C47.036 33.544 46.376 33.996 45.68 34.372C45.624 34.404 45.512 34.46 45.344 34.54C45.176 34.62 45.008 34.696 44.84 34.768C44.68 34.832 44.572 34.864 44.516 34.864C44.468 34.864 44.444 34.848 44.444 34.816C44.444 34.8 44.472 34.772 44.528 34.732C44.552 34.716 44.572 34.704 44.588 34.696C44.612 34.68 44.628 34.668 44.636 34.66C45.108 34.308 45.584 33.908 46.064 33.46C46.544 33.004 47.008 32.516 47.456 31.996C47.904 31.476 48.32 30.948 48.704 30.412C49.088 29.868 49.416 29.34 49.688 28.828H45.092V28.372H53.876C53.884 28.212 53.94 28.048 54.044 27.88C54.148 27.704 54.3 27.616 54.5 27.616C54.684 27.616 54.836 27.676 54.956 27.796C55.076 27.908 55.136 28.056 55.136 28.24ZM55.724 34.288C55.724 34.44 55.672 34.568 55.568 34.672C55.464 34.776 55.332 34.828 55.172 34.828C54.964 34.828 54.76 34.784 54.56 34.696C53.816 34.408 53.108 33.992 52.436 33.448C51.772 32.904 51.2 32.316 50.72 31.684L51.656 31.084C52.056 31.7 52.512 32.28 53.024 32.824C53.544 33.368 54.096 33.852 54.68 34.276C54.704 34.148 54.756 34.032 54.836 33.928C54.924 33.816 55.04 33.76 55.184 33.76C55.344 33.76 55.472 33.812 55.568 33.916C55.672 34.012 55.724 34.136 55.724 34.288ZM52.208 50.992C52.208 50.64 52.204 50.292 52.196 49.948C52.196 49.604 52.196 49.26 52.196 48.916H47.624V52.096H50.84C51.232 52.096 51.556 52.024 51.812 51.88C52.076 51.728 52.208 51.432 52.208 50.992ZM53.348 50.932C53.348 51.428 53.244 51.792 53.036 52.024C52.836 52.256 52.564 52.404 52.22 52.468C51.884 52.532 51.508 52.564 51.092 52.564H46.58V48.448H53.348V50.932ZM52.58 46.408C52.58 46.52 52.536 46.62 52.448 46.708C52.36 46.788 52.256 46.828 52.136 46.828C51.28 46.828 50.424 46.828 49.568 46.828C48.712 46.82 47.852 46.816 46.988 46.816V46.396H51.704C51.712 46.292 51.752 46.188 51.824 46.084C51.904 45.98 52.008 45.928 52.136 45.928C52.256 45.928 52.36 45.98 52.448 46.084C52.536 46.188 52.58 46.296 52.58 46.408ZM55.82 46.648C55.82 46.76 55.776 46.868 55.688 46.972C55.6 47.076 55.492 47.128 55.364 47.128C55.172 47.128 54.984 47.108 54.8 47.068C54.616 47.02 54.432 46.956 54.248 46.876C53.368 46.492 52.616 45.984 51.992 45.352C51.368 44.712 50.808 43.992 50.312 43.192C50.248 43.216 50.144 43.268 50 43.348C49.856 43.42 49.7 43.504 49.532 43.6C49.364 43.696 49.212 43.788 49.076 43.876C48.948 43.956 48.86 44.016 48.812 44.056C48.732 44.128 48.628 44.236 48.5 44.38C48.38 44.516 48.276 44.628 48.188 44.716C47.828 45.084 47.46 45.452 47.084 45.82C46.708 46.18 46.312 46.512 45.896 46.816C45.488 47.12 45.04 47.372 44.552 47.572C44.544 47.58 44.528 47.584 44.504 47.584C44.408 47.584 44.36 47.544 44.36 47.464C44.36 47.44 44.372 47.416 44.396 47.392C44.58 47.24 44.76 47.092 44.936 46.948C45.112 46.796 45.28 46.64 45.44 46.48C46.072 45.84 46.668 45.144 47.228 44.392C47.796 43.632 48.248 42.832 48.584 41.992L49.82 42.232C49.892 42.248 49.928 42.296 49.928 42.376C49.928 42.408 49.896 42.476 49.832 42.58C49.768 42.684 49.688 42.8 49.592 42.928C49.496 43.048 49.404 43.164 49.316 43.276C49.228 43.388 49.16 43.476 49.112 43.54C49.2 43.484 49.332 43.396 49.508 43.276C49.692 43.156 49.884 43.032 50.084 42.904C50.308 42.76 50.512 42.632 50.696 42.52C50.88 42.4 50.988 42.34 51.02 42.34C51.068 42.34 51.104 42.348 51.128 42.364C51.16 42.38 51.188 42.4 51.212 42.424C51.22 42.432 51.228 42.444 51.236 42.46C51.244 42.468 51.252 42.48 51.26 42.496C51.284 42.528 51.3 42.56 51.308 42.592C51.42 42.816 51.528 43.032 51.632 43.24C51.736 43.44 51.864 43.644 52.016 43.852C52.4 44.396 52.824 44.912 53.288 45.4C53.752 45.888 54.264 46.316 54.824 46.684C54.84 46.564 54.884 46.444 54.956 46.324C55.036 46.196 55.152 46.132 55.304 46.132C55.432 46.132 55.548 46.188 55.652 46.3C55.764 46.412 55.82 46.528 55.82 46.648ZM53.312 64.384H50.312V67.276H52.532C52.812 67.276 53.012 67.188 53.132 67.012C53.252 66.836 53.312 66.624 53.312 66.376V64.384ZM48.788 60.016C48.788 60.128 48.744 60.232 48.656 60.328C48.576 60.416 48.472 60.46 48.344 60.46H47.324V61.552L48.128 61.204C48.16 61.372 48.196 61.536 48.236 61.696C48.284 61.848 48.328 62.004 48.368 62.164C48.384 62.196 48.404 62.26 48.428 62.356C48.452 62.452 48.48 62.552 48.512 62.656C48.544 62.76 48.572 62.856 48.596 62.944C48.62 63.032 48.632 63.084 48.632 63.1C48.632 63.124 48.628 63.152 48.62 63.184C48.612 63.208 48.592 63.22 48.56 63.22C48.48 63.22 48.376 63.156 48.248 63.028C48.12 62.892 47.996 62.736 47.876 62.56C47.756 62.4 47.648 62.24 47.552 62.08C47.456 61.912 47.38 61.788 47.324 61.708V67.72H46.4V62.44C46.304 62.632 46.18 62.848 46.028 63.088C45.876 63.328 45.708 63.568 45.524 63.808C45.34 64.048 45.152 64.268 44.96 64.468C44.768 64.66 44.588 64.804 44.42 64.9C44.372 64.932 44.324 64.948 44.276 64.948C44.228 64.948 44.204 64.928 44.204 64.888C44.204 64.856 44.216 64.828 44.24 64.804C44.4 64.54 44.552 64.276 44.696 64.012C44.848 63.74 44.988 63.468 45.116 63.196C45.316 62.764 45.496 62.32 45.656 61.864C45.824 61.4 45.956 60.932 46.052 60.46H44.696V60.076H46.4V57.508H47.324V60.076H47.948C47.94 60.068 47.936 60.044 47.936 60.004C47.936 59.892 47.976 59.788 48.056 59.692C48.136 59.596 48.24 59.548 48.368 59.548C48.488 59.548 48.588 59.6 48.668 59.704C48.748 59.8 48.788 59.904 48.788 60.016ZM54.248 66.34C54.248 66.836 54.088 67.184 53.768 67.384C53.448 67.584 53.06 67.684 52.604 67.684H49.448V64.012H54.248V66.34ZM55.832 63.544C55.832 63.72 55.768 63.844 55.64 63.916C55.512 63.98 55.368 64.012 55.208 64.012C55.152 64.012 55.068 64 54.956 63.976C54.852 63.952 54.776 63.932 54.728 63.916C54.176 63.756 53.664 63.508 53.192 63.172C52.72 62.836 52.272 62.476 51.848 62.092C51.36 62.548 50.848 62.972 50.312 63.364C49.776 63.748 49.188 64.048 48.548 64.264C48.508 64.28 48.44 64.304 48.344 64.336C48.256 64.36 48.168 64.384 48.08 64.408C47.992 64.432 47.928 64.444 47.888 64.444C47.832 64.444 47.804 64.424 47.804 64.384C47.804 64.352 47.816 64.332 47.84 64.324C47.848 64.316 47.856 64.312 47.864 64.312C47.872 64.312 47.88 64.308 47.888 64.3C47.96 64.26 48.032 64.22 48.104 64.18C48.176 64.14 48.248 64.1 48.32 64.06C48.392 64.02 48.46 63.98 48.524 63.94C48.596 63.892 48.664 63.848 48.728 63.808C49.2 63.48 49.644 63.12 50.06 62.728C50.476 62.336 50.872 61.928 51.248 61.504C51.056 61.288 50.872 61.068 50.696 60.844C50.528 60.612 50.364 60.38 50.204 60.148L51.044 59.644C51.148 59.852 51.26 60.056 51.38 60.256C51.5 60.456 51.632 60.648 51.776 60.832C52.008 60.52 52.216 60.192 52.4 59.848C52.584 59.496 52.732 59.132 52.844 58.756H51.02C50.868 59.036 50.672 59.348 50.432 59.692C50.2 60.036 49.948 60.36 49.676 60.664C49.404 60.96 49.128 61.196 48.848 61.372C48.816 61.388 48.796 61.396 48.788 61.396C48.772 61.404 48.748 61.408 48.716 61.408C48.676 61.408 48.656 61.396 48.656 61.372C48.656 61.356 48.664 61.332 48.68 61.3C48.688 61.292 48.692 61.284 48.692 61.276C48.7 61.268 48.708 61.26 48.716 61.252C48.828 61.092 48.936 60.936 49.04 60.784C49.144 60.624 49.24 60.46 49.328 60.292C49.584 59.796 49.812 59.288 50.012 58.768C50.212 58.24 50.364 57.7 50.468 57.148L51.62 57.472C51.564 57.632 51.5 57.796 51.428 57.964C51.364 58.124 51.292 58.284 51.212 58.444C51.708 58.444 52.196 58.444 52.676 58.444C53.164 58.436 53.656 58.432 54.152 58.432C54.12 58.768 54.008 59.132 53.816 59.524C53.624 59.908 53.4 60.276 53.144 60.628C52.888 60.98 52.644 61.276 52.412 61.516C52.764 61.908 53.14 62.28 53.54 62.632C53.948 62.984 54.384 63.292 54.848 63.556C54.856 63.42 54.9 63.304 54.98 63.208C55.068 63.104 55.184 63.052 55.328 63.052C55.48 63.052 55.6 63.1 55.688 63.196C55.784 63.284 55.832 63.4 55.832 63.544Z" fill="#1A91D6"/>
</svg>
