<svg width="42" height="42" viewBox="0 0 42 42" fill="none" xmlns="http://www.w3.org/2000/svg">
<rect width="42" height="42" fill="#BBBBBB"/>
<rect width="42" height="42" fill="#F47777"/>
<path d="M29.8751 19.7083V12.5208L20.5001 17.625L9.04175 11.375L20.5001 5.125L31.9584 11.375V19.7083H29.8751ZM20.5001 23.875L13.2084 19.9167V14.7083L20.5001 18.6667L27.7917 14.7083V19.9167L20.5001 23.875Z" fill="white"/>
<path d="M9.672 29.04H20.352V30.528H9.672V29.04ZM15.84 29.64C16.08 30.552 16.412 31.404 16.836 32.196C17.26 32.988 17.784 33.68 18.408 34.272C19.04 34.864 19.776 35.332 20.616 35.676C20.496 35.78 20.368 35.912 20.232 36.072C20.104 36.232 19.976 36.396 19.848 36.564C19.728 36.74 19.628 36.896 19.548 37.032C18.628 36.6 17.836 36.044 17.172 35.364C16.516 34.684 15.964 33.892 15.516 32.988C15.068 32.076 14.692 31.072 14.388 29.976L15.84 29.64ZM14.184 25.812H15.756C15.748 26.42 15.728 27.064 15.696 27.744C15.672 28.416 15.612 29.1 15.516 29.796C15.42 30.492 15.264 31.184 15.048 31.872C14.84 32.552 14.544 33.208 14.16 33.84C13.784 34.464 13.296 35.048 12.696 35.592C12.104 36.136 11.38 36.616 10.524 37.032C10.412 36.84 10.256 36.628 10.056 36.396C9.856 36.164 9.652 35.972 9.444 35.82C10.26 35.452 10.944 35.028 11.496 34.548C12.048 34.06 12.496 33.536 12.84 32.976C13.192 32.408 13.46 31.82 13.644 31.212C13.828 30.596 13.952 29.976 14.016 29.352C14.088 28.728 14.132 28.116 14.148 27.516C14.164 26.916 14.176 26.348 14.184 25.812ZM23.184 26.34H32.412V27.636H23.184V26.34ZM22.332 26.34H23.748V29.904C23.748 30.424 23.732 30.992 23.7 31.608C23.676 32.224 23.62 32.856 23.532 33.504C23.452 34.152 23.328 34.784 23.16 35.4C23 36.008 22.788 36.56 22.524 37.056C22.436 36.968 22.312 36.876 22.152 36.78C22 36.692 21.84 36.604 21.672 36.516C21.512 36.436 21.372 36.376 21.252 36.336C21.508 35.88 21.708 35.38 21.852 34.836C21.996 34.284 22.1 33.72 22.164 33.144C22.236 32.56 22.28 31.992 22.296 31.44C22.32 30.888 22.332 30.376 22.332 29.904V26.34ZM25.956 31.236V31.932H30.048V31.236H25.956ZM25.956 29.556V30.24H30.048V29.556H25.956ZM24.552 28.476H31.536V33.012H24.552V28.476ZM27.312 32.412H28.704V35.676C28.704 35.996 28.664 36.252 28.584 36.444C28.512 36.636 28.364 36.78 28.14 36.876C27.916 36.972 27.644 37.028 27.324 37.044C27.004 37.068 26.632 37.08 26.208 37.08C26.176 36.896 26.12 36.684 26.04 36.444C25.968 36.204 25.888 35.992 25.8 35.808C26.064 35.816 26.324 35.824 26.58 35.832C26.836 35.832 27.004 35.828 27.084 35.82C27.172 35.82 27.232 35.808 27.264 35.784C27.296 35.76 27.312 35.712 27.312 35.64V32.412ZM27.072 27.528L28.8 27.648C28.712 27.952 28.624 28.236 28.536 28.5C28.456 28.756 28.388 28.976 28.332 29.16L26.844 29.004C26.876 28.86 26.904 28.7 26.928 28.524C26.96 28.348 26.988 28.176 27.012 28.008C27.044 27.832 27.064 27.672 27.072 27.528ZM29.292 34.02L30.396 33.336C30.66 33.56 30.936 33.812 31.224 34.092C31.512 34.372 31.78 34.652 32.028 34.932C32.284 35.204 32.484 35.46 32.628 35.7L31.44 36.456C31.312 36.224 31.128 35.968 30.888 35.688C30.648 35.4 30.388 35.112 30.108 34.824C29.836 34.528 29.564 34.26 29.292 34.02ZM25.284 33.396L26.676 33.78C26.396 34.308 26.044 34.82 25.62 35.316C25.204 35.804 24.784 36.212 24.36 36.54C24.264 36.46 24.144 36.364 24 36.252C23.864 36.148 23.72 36.048 23.568 35.952C23.416 35.848 23.284 35.764 23.172 35.7C23.604 35.436 24.008 35.1 24.384 34.692C24.76 34.276 25.06 33.844 25.284 33.396Z" fill="white"/>
</svg>
