<svg width="39" height="43" viewBox="0 0 39 43" fill="none" xmlns="http://www.w3.org/2000/svg">
<path d="M25.5 0.999997C25.8625 1.00001 26.2127 1.13128 26.4859 1.36953C26.7591 1.60778 26.9367 1.93689 26.986 2.296L27 2.5L26.998 3.998H28.498C29.6915 3.998 30.8361 4.4721 31.68 5.31602C32.5239 6.15993 32.998 7.30452 32.998 8.498V19.672C31.5015 18.9607 29.8011 18.8033 28.1994 19.2279C26.5978 19.6525 25.1986 20.6315 24.251 21.9907C23.3033 23.35 22.8685 25.0013 23.024 26.651C23.1794 28.3007 23.9151 29.8417 25.1 31H24.544C23.8158 30.9995 23.0947 31.1425 22.4218 31.4209C21.7489 31.6994 21.1376 32.1077 20.6227 32.6226C20.1077 33.1375 19.6994 33.7489 19.421 34.4218C19.1425 35.0946 18.9995 35.8158 19 36.544V36.75C19 38.232 19.43 39.716 20.336 41.01H4.50603C3.31255 41.01 2.16796 40.5359 1.32405 39.692C0.480134 38.8481 0.00602818 37.7035 0.00602818 36.51L0.00402832 8.5C0.00402832 7.30652 0.478134 6.16193 1.32205 5.31802C2.16596 4.4741 3.31055 4 4.50403 4L5.99803 3.998V2.5C5.99414 2.11724 6.13672 1.74748 6.39657 1.46643C6.65643 1.18538 7.0139 1.0143 7.39578 0.988227C7.77766 0.962155 8.15507 1.08306 8.45071 1.32619C8.74635 1.56932 8.93786 1.91627 8.98603 2.296L9.00003 2.5L8.99803 3.998H15V2.5C14.9961 2.11724 15.1387 1.74748 15.3986 1.46643C15.6584 1.18538 16.0159 1.0143 16.3978 0.988227C16.7797 0.962155 17.1571 1.08306 17.4527 1.32619C17.7484 1.56932 17.9399 1.91627 17.988 2.296L18.002 2.5L18 3.998H23.996V2.5C23.996 2.10217 24.1541 1.72064 24.4354 1.43934C24.7167 1.15803 25.0982 0.999997 25.496 0.999997M15.492 29H7.50003L7.29603 29.014C6.937 29.0634 6.608 29.2411 6.36985 29.5143C6.13169 29.7874 6.00049 30.1376 6.00049 30.5C6.00049 30.8624 6.13169 31.2126 6.36985 31.4857C6.608 31.7589 6.937 31.9366 7.29603 31.986L7.50003 32H15.496L15.7 31.986C16.0591 31.9366 16.3881 31.7589 16.6262 31.4857C16.8644 31.2126 16.9956 30.8624 16.9956 30.5C16.9956 30.1376 16.8644 29.7874 16.6262 29.5143C16.3881 29.2411 16.0591 29.0634 15.7 29.014L15.492 29ZM25.492 13H7.50003L7.29603 13.014C6.937 13.0634 6.608 13.2411 6.36985 13.5143C6.13169 13.7874 6.00049 14.1376 6.00049 14.5C6.00049 14.8624 6.13169 15.2126 6.36985 15.4857C6.608 15.7589 6.937 15.9366 7.29603 15.986L7.50003 16H25.496L25.7 15.986C26.0591 15.9366 26.3881 15.7589 26.6262 15.4857C26.8644 15.2126 26.9956 14.8624 26.9956 14.5C26.9956 14.1376 26.8644 13.7874 26.6262 13.5143C26.3881 13.2411 26.0591 13.0634 25.7 13.014L25.492 13ZM6.00003 22.5C6.00003 23.328 6.67203 24 7.50003 24H19.5C19.8979 24 20.2794 23.842 20.5607 23.5607C20.842 23.2794 21 22.8978 21 22.5C21 22.1022 20.842 21.7206 20.5607 21.4393C20.2794 21.158 19.8979 21 19.5 21H7.50003C7.1022 21 6.72067 21.158 6.43937 21.4393C6.15806 21.7206 6.00003 22.1022 6.00003 22.5ZM35 26C35 27.3261 34.4732 28.5979 33.5356 29.5355C32.5979 30.4732 31.3261 31 30 31C28.6739 31 27.4022 30.4732 26.4645 29.5355C25.5268 28.5979 25 27.3261 25 26C25 24.6739 25.5268 23.4021 26.4645 22.4645C27.4022 21.5268 28.6739 21 30 21C31.3261 21 32.5979 21.5268 33.5356 22.4645C34.4732 23.4021 35 24.6739 35 26ZM39 36.75C39 39.862 36.428 43 30 43C23.572 43 21 39.874 21 36.75V36.544C21 34.584 22.588 33 24.546 33H35.454C37.414 33 39 34.586 39 36.544V36.75Z" fill="#BDE3FF"/>
</svg>
