<svg width="110" height="110" viewBox="0 0 110 110" fill="none" xmlns="http://www.w3.org/2000/svg">
<rect width="110" height="110" fill="#F96464"/>
<path d="M55.5909 86.9091C51.4621 86.9091 47.5795 86.1326 43.9432 84.5795C40.3258 83.0265 37.1345 80.8769 34.3693 78.1307C31.6231 75.3655 29.464 72.1742 27.892 68.5568C26.339 64.9394 25.572 61.0568 25.5909 56.9091C25.6098 52.7614 26.3958 48.8788 27.9489 45.2614C29.5208 41.6439 31.6799 38.4621 34.4261 35.7159C37.1723 32.9508 40.3542 30.7917 43.9716 29.2386C47.589 27.6856 51.4621 26.9091 55.5909 26.9091C59.7386 26.9091 63.6212 27.6856 67.2386 29.2386C70.875 30.7917 74.0568 32.9508 76.7841 35.7159C79.5303 38.4621 81.6799 41.6439 83.233 45.2614C84.786 48.8788 85.572 52.7614 85.5909 56.9091C85.6098 61.0568 84.8428 64.9394 83.2898 68.5568C81.7367 72.1742 79.5871 75.3655 76.8409 78.1307C74.0947 80.8769 70.9034 83.0265 67.267 84.5795C63.6307 86.1326 59.7386 86.9091 55.5909 86.9091ZM55.5909 77.4489C58.4508 77.4489 61.1212 76.9186 63.6023 75.858C66.1023 74.7973 68.2898 73.3295 70.1648 71.4545C72.0398 69.5606 73.5076 67.3826 74.5682 64.9205C75.6288 62.4394 76.1496 59.7784 76.1307 56.9375C76.1307 54.0777 75.5909 51.4072 74.5114 48.9261C73.4508 46.4261 71.983 44.2386 70.108 42.3636C68.233 40.4886 66.0549 39.0208 63.5739 37.9602C61.0928 36.8996 58.4318 36.3693 55.5909 36.3693C52.7689 36.3693 50.1174 36.8996 47.6364 37.9602C45.1742 39.0208 42.9962 40.4981 41.1023 42.392C39.2273 44.267 37.75 46.4545 36.6705 48.9545C35.5909 51.4356 35.0511 54.0966 35.0511 56.9375C35.0322 59.7595 35.553 62.411 36.6136 64.892C37.6932 67.3542 39.1705 69.5322 41.0455 71.4261C42.9394 73.3011 45.1269 74.7784 47.608 75.858C50.089 76.9186 52.75 77.4489 55.5909 77.4489Z" fill="white"/>
</svg>
